<svg xmlns="http://www.w3.org/2000/svg" width="72" height="18"><path fill="#fff" d="M38.765 6.699l.471.617s.969-.764 1.291-.382c.324.382 1.557 4.993 1.968 5.842.359.746 1.351 1.732 2.437 1.028 1.087-.704 4.698-3.788 5.345-7.429.646-3.64-4.346-2.877-4.875.294 1.321-.793 2.027.322 1.351 1.585-.675 1.262-1.291 2.085-1.614 2.085s-.57-.845-.939-2.321c-.382-1.526-.38-4.275-1.968-3.964-1.5.296-3.467 2.645-3.467 2.645z"/><path fill="#fff" d="M32.784 5.412c-.426.189-.884.316-1.363.374.49-.294.866-.759 1.043-1.313-.458.272-.966.47-1.507.576-.433-.461-1.049-.749-1.732-.749-1.311 0-2.373 1.062-2.373 2.373 0 .186.021.367.062.541-1.973-.1-3.721-1.044-4.892-2.479-.205.349-.322.757-.322 1.192 0 .824.419 1.55 1.056 1.976-.389-.012-.755-.119-1.075-.297v.03c0 1.149.818 2.108 1.903 2.326-.198.055-.408.084-.625.084-.152 0-.302-.016-.446-.043.302.943 1.179 1.629 2.217 1.648-.812.637-1.835 1.016-2.947 1.016-.191 0-.381-.011-.566-.033 1.051.674 2.298 1.066 3.638 1.066 4.366 0 6.753-3.616 6.753-6.752l-.007-.308c.462-.333.865-.751 1.183-1.228z"/><path fill="#fff" d="M9.524 14.784h-2.167v-5.784h-1.446v-1.993l1.446-.001-.003-1.174c0-1.626.441-2.616 2.356-2.616h1.595v1.994h-.997c-.746 0-.782.279-.782.799l-.002.997h1.792l-.21 1.994h-1.58l-.002 5.784z"/><path fill="#fff" d="M60.47 12.708h-2.023v-7.084h2.023v7.084zm-1.012-8.096c-.559 0-1.012-.453-1.012-1.012s.453-1.012 1.012-1.012 1.012.453 1.012 1.012-.453 1.012-1.012 1.012zm8.096 8.096h-2.024v-4.047c0-.56-.453-1.013-1.012-1.013-.56 0-1.013.453-1.013 1.013v4.047h-2.024v-7.084h2.024v1.257c.417-.573 1.056-1.257 1.771-1.257 1.257 0 2.276 1.133 2.276 2.53v4.554h.002z"/></svg>