<svg xmlns="http://www.w3.org/2000/svg" width="330" height="60"><path d="M27.13 22.755c0-.18-.041-.303-.123-.369s-.245-.098-.491-.098h-9.854v-.295c.262 0 .431-.045.504-.135.074-.09.11-.274.11-.553v-8.845c0-.278-.036-.462-.11-.553-.073-.09-.242-.135-.504-.135v-.295h2.752v.295c-.262 0-.43.045-.503.135-.074.09-.111.274-.111.553v8.453h7.716c.246 0 .409-.053.491-.16s.123-.299.123-.578h.295v2.58h-.295zM32.167 21.994c.262 0 .438-.057.528-.172.09-.114.176-.262.258-.442l3.883-8.895c.081-.196.122-.335.122-.417s-.045-.156-.135-.221-.25-.106-.479-.123v-.246h3.98v.295c-.131 0-.258.021-.381.062-.122.041-.184.119-.184.233 0 .082.021.164.062.246l.11.246 4.201 8.944c.05.115.123.225.222.332.099.107.278.16.54.16v.295h-3.096v-.295c.295 0 .491-.024.59-.074.099-.049.147-.123.147-.221 0-.114-.017-.212-.049-.295l-.099-.246-1.008-2.064h-5.971l-.835 1.868-.209.417c-.074.131-.11.238-.11.319 0 .099.049.172.147.221.098.049.27.074.516.074v.295h-2.752v-.296zm3.809-4.276h4.791l-2.481-5.16-2.31 5.16zM53.544 21.994c.229 0 .377-.021.442-.062.065-.041.099-.119.099-.233 0-.082-.033-.184-.099-.307-.065-.123-.114-.25-.147-.381l-3.464-8.6c-.099-.246-.197-.413-.295-.503-.099-.09-.238-.135-.418-.135v-.295h2.801v.295c-.459 0-.688.09-.688.271 0 .082.024.168.073.258l.123.283 2.974 7.347h.049l2.678-7.372.099-.27.049-.246c0-.18-.172-.271-.516-.271v-.295h2.948v.295c-.344 0-.516.065-.516.197 0 .082.021.164.062.246l.11.295 2.752 7.42h.05l2.53-7.224.099-.319c.032-.082.049-.18.049-.295 0-.212-.213-.319-.639-.319v-.295h2.801v.295c-.229 0-.393.029-.491.086-.099.058-.181.176-.246.356l-3.096 8.796-.11.332c-.041.123-.062.233-.062.332 0 .213.172.319.516.319v.295h-2.653v-.295c.229 0 .372-.021.43-.062.058-.041.086-.102.086-.184 0-.065-.028-.172-.086-.319l-.159-.418-2.949-7.519h-.05l-2.629 7.494-.123.356c-.049.123-.073.242-.073.356 0 .131.061.221.184.271.123.049.242.058.356.024v.295h-2.851v-.295zM76.298 21.306c0 .279.036.463.11.553.073.09.241.135.504.135v.295h-2.752v-.295c.262 0 .43-.045.503-.135.074-.09.111-.274.111-.553v-8.846c0-.278-.037-.462-.111-.553-.073-.09-.241-.135-.503-.135v-.295h7.519c1.081 0 1.867.271 2.358.811.492.541.737 1.278.737 2.211 0 .95-.258 1.667-.773 2.15-.517.483-1.25.741-2.199.774l2.702 4.128c.115.181.213.299.295.356.082.058.188.086.319.086v.295h-2.653v-.295c.18 0 .291-.012.332-.037.04-.025.062-.078.062-.16s-.025-.164-.074-.246l-.196-.344-2.408-3.784h-3.882v3.884zm5.234-5.259c.59 0 1.008-.131 1.253-.393.246-.262.369-.664.369-1.204 0-.59-.128-1.02-.381-1.29-.255-.27-.75-.405-1.487-.405h-4.987v3.292h5.233zM93.424 12.46c0-.278-.037-.462-.11-.553-.074-.09-.226-.135-.455-.135v-.295h9.902c.246 0 .409-.045.491-.135.082-.09.123-.241.123-.455h.295v2.556h-.295c0-.213-.041-.364-.123-.455-.082-.09-.245-.135-.491-.135h-7.716v3.194h5.431c.246 0 .409-.045.491-.135.082-.09.123-.241.123-.455h.295v2.556h-.295c0-.213-.041-.364-.123-.455-.082-.09-.245-.135-.491-.135h-5.431v3.489h7.986c.245 0 .409-.045.491-.135.082-.09.123-.241.123-.455h.295v2.482h-.295c0-.213-.041-.353-.123-.418s-.246-.098-.491-.098h-10.172v-.295c.229 0 .381-.045.455-.135.073-.09.11-.274.11-.553v-8.845zM111.508 21.994c.262 0 .438-.045.528-.135.09-.09.136-.274.136-.553v-8.846c0-.278-.046-.462-.136-.553-.09-.09-.267-.135-.528-.135v-.295h3.588v.295c-.263 0-.438.021-.528.062-.091.041-.136.094-.136.16 0 .049.09.188.271.417l6.659 7.642v-7.593c0-.278-.046-.462-.136-.553-.09-.09-.266-.135-.527-.135v-.295h2.702v.295c-.262 0-.438.045-.528.135-.09.09-.135.274-.135.553v8.846c0 .279.045.463.135.553.09.09.267.135.528.135v.295h-3.292v-.295c.327 0 .523-.016.59-.049.064-.032.098-.09.098-.172 0-.082-.028-.151-.086-.209l-.209-.233-6.953-7.937v7.912c0 .279.045.463.135.553.09.09.266.135.528.135v.295h-2.703v-.295zM140.159 14.524l.049-.196v-.221c0-.099-.106-.225-.319-.381s-.495-.311-.848-.467c-.353-.155-.745-.286-1.18-.393-.434-.106-.872-.16-1.314-.16-.704 0-1.335.111-1.892.332-.558.221-1.032.524-1.425.909-.394.385-.692.832-.897 1.339-.205.508-.307 1.048-.307 1.622 0 .574.102 1.106.307 1.597.205.492.5.914.885 1.266.385.353.839.631 1.363.835.524.205 1.106.307 1.745.307s1.208-.065 1.708-.197c.499-.131.921-.291 1.265-.479.345-.188.606-.376.786-.565.181-.188.271-.332.271-.43 0-.18-.033-.344-.098-.491l.245-.147 1.721 2.26-.271.197c-.132-.098-.229-.16-.295-.185l-.172-.037c-.147 0-.349.082-.603.246-.254.164-.586.344-.995.541-.409.197-.896.369-1.462.516s-1.241.221-2.027.221c-.835 0-1.617-.11-2.347-.332-.729-.221-1.363-.565-1.904-1.032-.54-.467-.967-1.044-1.277-1.732-.312-.688-.467-1.474-.467-2.359 0-.884.16-1.671.479-2.359s.757-1.269 1.314-1.744c.557-.475 1.204-.839 1.94-1.094.737-.254 1.523-.381 2.359-.381.704 0 1.286.041 1.744.123.459.082.935.213 1.426.393.327.115.598.221.811.319s.377.147.491.147c.131 0 .262-.09.394-.27l.295.098-1.204 2.531-.294-.147zM149.544 12.46c0-.278-.036-.462-.11-.553-.073-.09-.226-.135-.454-.135v-.295h9.902c.245 0 .409-.045.491-.135.082-.09.123-.241.123-.455h.295v2.556h-.295c0-.213-.041-.364-.123-.455-.082-.09-.246-.135-.491-.135h-7.716v3.194h5.431c.245 0 .409-.045.491-.135.082-.09.123-.241.123-.455h.295v2.556h-.295c0-.213-.041-.364-.123-.455-.082-.09-.246-.135-.491-.135h-5.431v3.489h7.986c.245 0 .409-.045.491-.135.081-.09.123-.241.123-.455h.294v2.482h-.294c0-.213-.042-.353-.123-.418-.082-.065-.246-.098-.491-.098h-10.172v-.295c.229 0 .381-.045.454-.135.074-.09.11-.274.11-.553v-8.845zM177.039 21.994c.264 0 .439-.057.529-.172.09-.114.176-.262.258-.442l3.883-8.895c.082-.196.123-.335.123-.417s-.047-.156-.137-.221-.248-.106-.479-.123v-.246h3.98v.295c-.131 0-.258.021-.381.062s-.184.119-.184.233c0 .082.02.164.061.246l.111.246 4.201 8.944c.049.115.123.225.221.332.1.107.279.16.541.16v.295h-3.096v-.295c.295 0 .492-.024.59-.074.098-.049.146-.123.146-.221 0-.114-.016-.212-.049-.295l-.098-.246-1.008-2.064h-5.971l-.836 1.868c-.064.147-.135.287-.209.417-.072.131-.109.238-.109.319 0 .099.049.172.146.221.1.049.271.074.516.074v.295h-2.752v-.296zm3.809-4.276h4.793l-2.482-5.16-2.311 5.16zM196.182 21.994c.262 0 .438-.045.527-.135.09-.09.137-.274.137-.553v-8.846c0-.278-.047-.462-.137-.553-.09-.09-.266-.135-.527-.135v-.295h3.588v.295c-.264 0-.439.021-.529.062s-.135.094-.135.16c0 .049.09.188.27.417l6.66 7.642v-7.593c0-.278-.047-.462-.137-.553-.09-.09-.266-.135-.527-.135v-.295h2.703v.295c-.262 0-.439.045-.529.135-.09.09-.135.274-.135.553v8.846c0 .279.045.463.135.553.09.09.268.135.529.135v.295h-3.293v-.295c.328 0 .523-.016.59-.049.064-.032.098-.09.098-.172 0-.082-.027-.151-.086-.209l-.209-.233-6.953-7.937v7.912c0 .279.045.463.135.553.09.09.266.135.529.135v.295h-2.703v-.295zM216.771 12.46c0-.278-.037-.462-.109-.553-.074-.09-.242-.135-.504-.135v-.295h5.945c.967 0 1.803.14 2.508.418.703.278 1.281.659 1.73 1.143.451.483.783 1.053.996 1.708.213.655.32 1.368.32 2.138 0 .754-.107 1.462-.32 2.125s-.545 1.237-.996 1.72c-.449.483-1.027.864-1.73 1.143-.705.278-1.541.417-2.508.417h-5.945v-.295c.262 0 .43-.045.504-.135.072-.09.109-.274.109-.553v-8.846zm5.038 8.453c.77 0 1.422-.106 1.953-.319.533-.213.967-.504 1.303-.873s.582-.794.738-1.277c.154-.483.232-1.003.232-1.561 0-.557-.078-1.077-.232-1.56-.156-.483-.402-.909-.738-1.278s-.77-.659-1.303-.873c-.531-.212-1.184-.319-1.953-.319h-3.514v8.06h3.514zM256.676 22.755c0-.18-.041-.303-.123-.369s-.246-.098-.49-.098h-9.854v-.295c.262 0 .43-.045.504-.135.072-.09.109-.274.109-.553v-8.845c0-.278-.037-.462-.109-.553-.074-.09-.242-.135-.504-.135v-.295h2.752v.295c-.262 0-.43.045-.504.135-.074.09-.111.274-.111.553v8.453h7.717c.244 0 .408-.053.49-.16s.123-.299.123-.578h.295v2.58h-.295zM268.766 11.33c.949 0 1.805.147 2.566.442s1.414.692 1.955 1.192c.539.5.953 1.085 1.24 1.757s.43 1.393.43 2.162c0 .77-.143 1.491-.43 2.162-.287.672-.701 1.258-1.24 1.757-.541.5-1.193.885-1.955 1.155s-1.617.405-2.566.405c-.951 0-1.807-.135-2.568-.405-.762-.271-1.412-.655-1.953-1.155-.541-.499-.955-1.085-1.24-1.757-.287-.671-.432-1.392-.432-2.162s.145-1.49.432-2.162c.285-.672.699-1.257 1.24-1.757s1.191-.897 1.953-1.192 1.616-.442 2.568-.442zm0 1.376c-.705 0-1.34.107-1.904.319-.566.213-1.045.508-1.438.885-.395.377-.697.819-.91 1.327-.213.508-.318 1.049-.318 1.622 0 .589.105 1.139.318 1.646.213.508.516.95.91 1.327.393.377.871.676 1.438.897.564.221 1.199.332 1.904.332.703 0 1.338-.111 1.904-.332.564-.221 1.043-.52 1.438-.897.393-.377.695-.819.908-1.327.213-.507.32-1.057.32-1.646 0-.573-.107-1.114-.32-1.622-.213-.507-.516-.95-.908-1.327-.395-.376-.873-.671-1.438-.885-.566-.213-1.201-.319-1.904-.319zM282.205 21.994c.262 0 .439-.045.529-.135.09-.09.135-.274.135-.553v-8.846c0-.278-.045-.462-.135-.553-.09-.09-.268-.135-.529-.135v-.295h3.588v.295c-.262 0-.438.021-.527.062-.092.041-.137.094-.137.16 0 .049.09.188.271.417l6.658 7.642v-7.593c0-.278-.045-.462-.135-.553-.09-.09-.268-.135-.529-.135v-.295h2.703v.295c-.262 0-.438.045-.527.135-.09.09-.135.274-.135.553v8.846c0 .279.045.463.135.553.09.09.266.135.527.135v.295h-3.293v-.295c.328 0 .525-.016.59-.049.066-.032.1-.09.1-.172 0-.082-.029-.151-.086-.209l-.209-.233-6.955-7.937v7.912c0 .279.045.463.137.553.09.09.266.135.527.135v.295h-2.703v-.295zM311.814 14.696l.049-.27c0-.082-.094-.217-.283-.406-.188-.188-.467-.381-.834-.577-.369-.197-.824-.369-1.365-.516-.539-.147-1.162-.221-1.867-.221-.672 0-1.285.107-1.842.319-.559.213-1.037.516-1.438.909-.402.394-.713.856-.934 1.389-.223.532-.332 1.118-.332 1.757 0 .541.102 1.053.307 1.536.205.483.508.905.908 1.265.402.361.91.647 1.523.86.615.213 1.332.319 2.15.319.246 0 .529-.021.848-.062.32-.041.648-.098.984-.172.334-.074.65-.168.945-.283.295-.114.541-.254.736-.417v-1.475h-2.236c-.244 0-.408.045-.49.135-.082.09-.123.242-.123.455h-.295v-2.359h.295c0 .115.041.209.123.283s.246.11.49.11h4.203v.295c-.131.033-.221.078-.271.135-.049.058-.072.16-.072.307v1.646c0 .23.113.369.344.418v.246c-.377.377-.803.7-1.277.971-.477.27-.963.488-1.463.651-.5.164-1.004.275-1.512.332s-.99.086-1.449.086c-.9 0-1.736-.11-2.506-.332s-1.434-.569-1.99-1.044-.996-1.061-1.314-1.757c-.32-.696-.48-1.495-.48-2.396 0-.655.141-1.31.418-1.965.279-.655.68-1.245 1.205-1.77.523-.524 1.174-.95 1.953-1.277.777-.328 1.666-.492 2.666-.492.688 0 1.314.07 1.879.209.566.139 1.057.295 1.475.467s.758.332 1.02.479.426.221.492.221c.098 0 .164-.02.195-.062l.1-.11.295.123-.934 2.162-.296-.122z"/><g fill="#929497"><path d="M90.823 48.904h-1.586l-1.391-3.211h-4.355l-1.443 3.211h-1.534l4.407-9.75h1.56l4.342 9.75zm-5.148-8.008l-1.534 3.393h3.068l-1.534-3.393zM105.89 39.154c1.56 0 3.055.793 3.055 2.781 0 2.119-1.417 2.783-2.236 2.848l2.015 4.121h-1.599l-1.95-4.068h-3.627v4.068h-1.404v-9.75h5.746zm-4.343 1.405v2.873h4.342c1.053 0 1.651-.547 1.651-1.496 0-1.104-.845-1.377-1.651-1.377h-4.342zM128.042 47.162c-.923 1.002-2.08 1.951-4.875 1.951-2.639 0-5.135-2.016-5.135-5.006 0-2.873 2.223-5.162 5.109-5.162 2.665 0 4.277 1.535 4.745 1.99l-1.053.896c-.442-.363-1.677-1.482-3.679-1.482-1.82 0-3.718 1.326-3.718 3.758 0 1.742 1.404 3.602 4.069 3.602 2.08 0 3.172-1.053 3.601-1.561l.936 1.014zM138.116 39.154h1.404v3.939h5.72v-3.939h1.404v9.75h-1.404v-4.406h-5.72v4.406h-1.404v-9.75zM159.02 39.154v9.75h-1.404v-9.75h1.404zM177.051 39.154v1.404h-3.418v8.346h-1.404v-8.346h-3.42v-1.404h8.242zM194.705 39.154v1.404h-6.578v2.561h3.314v1.404h-3.314v2.977h6.824v1.404h-8.229v-9.75h7.983zM214.348 47.162c-.924 1.002-2.08 1.951-4.875 1.951-2.639 0-5.135-2.016-5.135-5.006 0-2.873 2.223-5.162 5.109-5.162 2.664 0 4.277 1.535 4.744 1.99l-1.053.896c-.441-.363-1.678-1.482-3.68-1.482-1.82 0-3.717 1.326-3.717 3.758 0 1.742 1.402 3.602 4.068 3.602 2.08 0 3.172-1.053 3.602-1.561l.937 1.014zM231.482 39.154v1.404h-3.42v8.346h-1.404v-8.346h-3.418v-1.404h8.242zM241.037 46.188c.648.441 1.598 1.521 3.939 1.521 1.312 0 3.105-.469 3.105-1.664 0-1.6-1.832-1.6-3.055-1.6h-1.455c-1.326 0-2.887-.729-2.887-2.496 0-2.066 2.34-3.004 4.135-3.004 2.197 0 3.6 1.041 3.99 1.326l-.793 1.131c-.832-.492-1.521-1.053-3.158-1.053-1.223 0-2.77.455-2.77 1.6 0 .754.545 1.117 1.664 1.117h1.287c2.287 0 4.445.572 4.445 2.99 0 2.041-2.17 3.057-4.602 3.057-2.938 0-4.238-1.393-4.836-1.977l.991-.948z"/></g></svg>