<?xml version="1.0" encoding="utf-8"?>
<!-- Generator: Adobe Illustrator 16.0.0, SVG Export Plug-In . SVG Version: 6.00 Build 0)  -->
<!DOCTYPE svg PUBLIC "-//W3C//DTD SVG 1.1//EN" "http://www.w3.org/Graphics/SVG/1.1/DTD/svg11.dtd">
<svg version="1.1" id="Layer_1" xmlns="http://www.w3.org/2000/svg" xmlns:xlink="http://www.w3.org/1999/xlink" x="0px" y="0px"
	 width="330px" height="60px" viewBox="0 0 330 60" enable-background="new 0 0 330 60" xml:space="preserve">
<g>
	<g>
		<path d="M27.13,22.755c0-0.18-0.041-0.303-0.123-0.369s-0.245-0.098-0.491-0.098h-9.854v-0.295c0.262,0,0.431-0.045,0.504-0.135
			c0.074-0.09,0.11-0.274,0.11-0.553V12.46c0-0.278-0.036-0.462-0.11-0.553c-0.073-0.09-0.242-0.135-0.504-0.135v-0.295h2.752v0.295
			c-0.262,0-0.43,0.045-0.503,0.135c-0.074,0.09-0.111,0.274-0.111,0.553v8.453h7.716c0.246,0,0.409-0.053,0.491-0.16
			s0.123-0.299,0.123-0.578h0.295v2.58H27.13z"/>
		<path d="M32.167,21.994c0.262,0,0.438-0.057,0.528-0.172c0.09-0.114,0.176-0.262,0.258-0.442l3.883-8.895
			c0.081-0.196,0.122-0.335,0.122-0.417s-0.045-0.156-0.135-0.221s-0.25-0.106-0.479-0.123v-0.246h3.98v0.295
			c-0.131,0-0.258,0.021-0.381,0.062c-0.122,0.041-0.184,0.119-0.184,0.233c0,0.082,0.021,0.164,0.062,0.246
			c0.04,0.082,0.077,0.164,0.11,0.246l4.201,8.944c0.05,0.115,0.123,0.225,0.222,0.332c0.099,0.107,0.278,0.16,0.54,0.16v0.295
			h-3.096v-0.295c0.295,0,0.491-0.024,0.59-0.074c0.099-0.049,0.147-0.123,0.147-0.221c0-0.114-0.017-0.212-0.049-0.295
			c-0.033-0.082-0.066-0.164-0.099-0.246l-1.008-2.064h-5.971l-0.835,1.868c-0.065,0.147-0.136,0.287-0.209,0.417
			c-0.074,0.131-0.11,0.238-0.11,0.319c0,0.099,0.049,0.172,0.147,0.221c0.098,0.049,0.27,0.074,0.516,0.074v0.295h-2.752V21.994z
			 M35.976,17.718h4.791l-2.481-5.16L35.976,17.718z"/>
		<path d="M53.544,21.994c0.229,0,0.377-0.021,0.442-0.062c0.065-0.041,0.099-0.119,0.099-0.233c0-0.082-0.033-0.184-0.099-0.307
			c-0.065-0.123-0.114-0.25-0.147-0.381l-3.464-8.6c-0.099-0.246-0.197-0.413-0.295-0.503c-0.099-0.09-0.238-0.135-0.418-0.135
			v-0.295h2.801v0.295c-0.459,0-0.688,0.09-0.688,0.271c0,0.082,0.024,0.168,0.073,0.258c0.05,0.09,0.09,0.184,0.123,0.283
			l2.974,7.347h0.049l2.678-7.372c0.033-0.098,0.065-0.188,0.099-0.27s0.049-0.164,0.049-0.246c0-0.18-0.172-0.271-0.516-0.271
			v-0.295h2.948v0.295c-0.344,0-0.516,0.065-0.516,0.197c0,0.082,0.021,0.164,0.062,0.246s0.077,0.18,0.11,0.295l2.752,7.42h0.05
			l2.53-7.224c0.033-0.131,0.065-0.237,0.099-0.319c0.032-0.082,0.049-0.18,0.049-0.295c0-0.212-0.213-0.319-0.639-0.319v-0.295
			h2.801v0.295c-0.229,0-0.393,0.029-0.491,0.086c-0.099,0.058-0.181,0.176-0.246,0.356l-3.096,8.796
			c-0.033,0.099-0.069,0.209-0.11,0.332c-0.041,0.123-0.062,0.233-0.062,0.332c0,0.213,0.172,0.319,0.516,0.319v0.295h-2.653v-0.295
			c0.229,0,0.372-0.021,0.43-0.062c0.058-0.041,0.086-0.102,0.086-0.184c0-0.065-0.028-0.172-0.086-0.319s-0.11-0.287-0.159-0.418
			l-2.949-7.519H58.68l-2.629,7.494c-0.033,0.115-0.074,0.233-0.123,0.356c-0.049,0.123-0.073,0.242-0.073,0.356
			c0,0.131,0.061,0.221,0.184,0.271c0.123,0.049,0.242,0.058,0.356,0.024v0.295h-2.851V21.994z"/>
		<path d="M76.298,21.306c0,0.279,0.036,0.463,0.11,0.553c0.073,0.09,0.241,0.135,0.504,0.135v0.295h-2.752v-0.295
			c0.262,0,0.43-0.045,0.503-0.135c0.074-0.09,0.111-0.274,0.111-0.553V12.46c0-0.278-0.037-0.462-0.111-0.553
			c-0.073-0.09-0.241-0.135-0.503-0.135v-0.295h7.519c1.081,0,1.867,0.271,2.358,0.811c0.492,0.541,0.737,1.278,0.737,2.211
			c0,0.95-0.258,1.667-0.773,2.15c-0.517,0.483-1.25,0.741-2.199,0.774l2.702,4.128c0.115,0.181,0.213,0.299,0.295,0.356
			c0.082,0.058,0.188,0.086,0.319,0.086v0.295h-2.653v-0.295c0.18,0,0.291-0.012,0.332-0.037c0.04-0.025,0.062-0.078,0.062-0.16
			s-0.025-0.164-0.074-0.246c-0.049-0.082-0.114-0.196-0.196-0.344l-2.408-3.784h-3.882V21.306z M81.532,16.047
			c0.59,0,1.008-0.131,1.253-0.393c0.246-0.262,0.369-0.664,0.369-1.204c0-0.59-0.128-1.02-0.381-1.29
			c-0.255-0.27-0.75-0.405-1.487-0.405h-4.987v3.292H81.532z"/>
		<path d="M93.424,12.46c0-0.278-0.037-0.462-0.11-0.553c-0.074-0.09-0.226-0.135-0.455-0.135v-0.295h9.902
			c0.246,0,0.409-0.045,0.491-0.135c0.082-0.09,0.123-0.241,0.123-0.455h0.295v2.556h-0.295c0-0.213-0.041-0.364-0.123-0.455
			c-0.082-0.09-0.245-0.135-0.491-0.135h-7.716v3.194h5.431c0.246,0,0.409-0.045,0.491-0.135c0.082-0.09,0.123-0.241,0.123-0.455
			h0.295v2.556h-0.295c0-0.213-0.041-0.364-0.123-0.455c-0.082-0.09-0.245-0.135-0.491-0.135h-5.431v3.489h7.986
			c0.245,0,0.409-0.045,0.491-0.135c0.082-0.09,0.123-0.241,0.123-0.455h0.295v2.482h-0.295c0-0.213-0.041-0.353-0.123-0.418
			s-0.246-0.098-0.491-0.098H92.859v-0.295c0.229,0,0.381-0.045,0.455-0.135c0.073-0.09,0.11-0.274,0.11-0.553V12.46z"/>
		<path d="M111.508,21.994c0.262,0,0.438-0.045,0.528-0.135c0.09-0.09,0.136-0.274,0.136-0.553V12.46
			c0-0.278-0.046-0.462-0.136-0.553c-0.09-0.09-0.267-0.135-0.528-0.135v-0.295h3.588v0.295c-0.263,0-0.438,0.021-0.528,0.062
			c-0.091,0.041-0.136,0.094-0.136,0.16c0,0.049,0.09,0.188,0.271,0.417l6.659,7.642V12.46c0-0.278-0.046-0.462-0.136-0.553
			c-0.09-0.09-0.266-0.135-0.527-0.135v-0.295h2.702v0.295c-0.262,0-0.438,0.045-0.528,0.135c-0.09,0.09-0.135,0.274-0.135,0.553
			v8.846c0,0.279,0.045,0.463,0.135,0.553c0.09,0.09,0.267,0.135,0.528,0.135v0.295h-3.292v-0.295c0.327,0,0.523-0.016,0.59-0.049
			c0.064-0.032,0.098-0.09,0.098-0.172c0-0.082-0.028-0.151-0.086-0.209c-0.058-0.057-0.127-0.135-0.209-0.233l-6.953-7.937v7.912
			c0,0.279,0.045,0.463,0.135,0.553c0.09,0.09,0.266,0.135,0.528,0.135v0.295h-2.703V21.994z"/>
		<path d="M140.159,14.524c0.032-0.098,0.049-0.164,0.049-0.196v-0.221c0-0.099-0.106-0.225-0.319-0.381s-0.495-0.311-0.848-0.467
			c-0.353-0.155-0.745-0.286-1.18-0.393c-0.434-0.106-0.872-0.16-1.314-0.16c-0.704,0-1.335,0.111-1.892,0.332
			c-0.558,0.221-1.032,0.524-1.425,0.909c-0.394,0.385-0.692,0.832-0.897,1.339c-0.205,0.508-0.307,1.048-0.307,1.622
			c0,0.574,0.102,1.106,0.307,1.597c0.205,0.492,0.5,0.914,0.885,1.266c0.385,0.353,0.839,0.631,1.363,0.835
			c0.524,0.205,1.106,0.307,1.745,0.307s1.208-0.065,1.708-0.197c0.499-0.131,0.921-0.291,1.265-0.479
			c0.345-0.188,0.606-0.376,0.786-0.565c0.181-0.188,0.271-0.332,0.271-0.43c0-0.18-0.033-0.344-0.098-0.491l0.245-0.147l1.721,2.26
			l-0.271,0.197c-0.132-0.098-0.229-0.16-0.295-0.185c-0.065-0.024-0.123-0.037-0.172-0.037c-0.147,0-0.349,0.082-0.603,0.246
			c-0.254,0.164-0.586,0.344-0.995,0.541c-0.409,0.197-0.896,0.369-1.462,0.516s-1.241,0.221-2.027,0.221
			c-0.835,0-1.617-0.11-2.347-0.332c-0.729-0.221-1.363-0.565-1.904-1.032c-0.54-0.467-0.967-1.044-1.277-1.732
			c-0.312-0.688-0.467-1.474-0.467-2.359c0-0.884,0.16-1.671,0.479-2.359s0.757-1.269,1.314-1.744
			c0.557-0.475,1.204-0.839,1.94-1.094c0.737-0.254,1.523-0.381,2.359-0.381c0.704,0,1.286,0.041,1.744,0.123
			c0.459,0.082,0.935,0.213,1.426,0.393c0.327,0.115,0.598,0.221,0.811,0.319s0.377,0.147,0.491,0.147
			c0.131,0,0.262-0.09,0.394-0.27l0.295,0.098l-1.204,2.531L140.159,14.524z"/>
		<path d="M149.544,12.46c0-0.278-0.036-0.462-0.11-0.553c-0.073-0.09-0.226-0.135-0.454-0.135v-0.295h9.902
			c0.245,0,0.409-0.045,0.491-0.135c0.082-0.09,0.123-0.241,0.123-0.455h0.295v2.556h-0.295c0-0.213-0.041-0.364-0.123-0.455
			c-0.082-0.09-0.246-0.135-0.491-0.135h-7.716v3.194h5.431c0.245,0,0.409-0.045,0.491-0.135c0.082-0.09,0.123-0.241,0.123-0.455
			h0.295v2.556h-0.295c0-0.213-0.041-0.364-0.123-0.455c-0.082-0.09-0.246-0.135-0.491-0.135h-5.431v3.489h7.986
			c0.245,0,0.409-0.045,0.491-0.135c0.081-0.09,0.123-0.241,0.123-0.455h0.294v2.482h-0.294c0-0.213-0.042-0.353-0.123-0.418
			c-0.082-0.065-0.246-0.098-0.491-0.098H148.98v-0.295c0.229,0,0.381-0.045,0.454-0.135c0.074-0.09,0.11-0.274,0.11-0.553V12.46z"
			/>
		<path d="M177.039,21.994c0.264,0,0.439-0.057,0.529-0.172c0.09-0.114,0.176-0.262,0.258-0.442l3.883-8.895
			c0.082-0.196,0.123-0.335,0.123-0.417s-0.047-0.156-0.137-0.221s-0.248-0.106-0.479-0.123v-0.246h3.98v0.295
			c-0.131,0-0.258,0.021-0.381,0.062s-0.184,0.119-0.184,0.233c0,0.082,0.02,0.164,0.061,0.246c0.041,0.082,0.078,0.164,0.111,0.246
			l4.201,8.944c0.049,0.115,0.123,0.225,0.221,0.332c0.1,0.107,0.279,0.16,0.541,0.16v0.295h-3.096v-0.295
			c0.295,0,0.492-0.024,0.59-0.074c0.098-0.049,0.146-0.123,0.146-0.221c0-0.114-0.016-0.212-0.049-0.295
			c-0.033-0.082-0.064-0.164-0.098-0.246l-1.008-2.064h-5.971l-0.836,1.868c-0.064,0.147-0.135,0.287-0.209,0.417
			c-0.072,0.131-0.109,0.238-0.109,0.319c0,0.099,0.049,0.172,0.146,0.221c0.1,0.049,0.271,0.074,0.516,0.074v0.295h-2.752V21.994z
			 M180.848,17.718h4.793l-2.482-5.16L180.848,17.718z"/>
		<path d="M196.182,21.994c0.262,0,0.438-0.045,0.527-0.135c0.09-0.09,0.137-0.274,0.137-0.553V12.46
			c0-0.278-0.047-0.462-0.137-0.553c-0.09-0.09-0.266-0.135-0.527-0.135v-0.295h3.588v0.295c-0.264,0-0.439,0.021-0.529,0.062
			s-0.135,0.094-0.135,0.16c0,0.049,0.09,0.188,0.27,0.417l6.66,7.642V12.46c0-0.278-0.047-0.462-0.137-0.553
			c-0.09-0.09-0.266-0.135-0.527-0.135v-0.295h2.703v0.295c-0.262,0-0.439,0.045-0.529,0.135c-0.09,0.09-0.135,0.274-0.135,0.553
			v8.846c0,0.279,0.045,0.463,0.135,0.553c0.09,0.09,0.268,0.135,0.529,0.135v0.295h-3.293v-0.295c0.328,0,0.523-0.016,0.59-0.049
			c0.064-0.032,0.098-0.09,0.098-0.172c0-0.082-0.027-0.151-0.086-0.209c-0.057-0.057-0.127-0.135-0.209-0.233l-6.953-7.937v7.912
			c0,0.279,0.045,0.463,0.135,0.553c0.09,0.09,0.266,0.135,0.529,0.135v0.295h-2.703V21.994z"/>
		<path d="M216.771,12.46c0-0.278-0.037-0.462-0.109-0.553c-0.074-0.09-0.242-0.135-0.504-0.135v-0.295h5.945
			c0.967,0,1.803,0.14,2.508,0.418c0.703,0.278,1.281,0.659,1.73,1.143c0.451,0.483,0.783,1.053,0.996,1.708
			c0.213,0.655,0.32,1.368,0.32,2.138c0,0.754-0.107,1.462-0.32,2.125s-0.545,1.237-0.996,1.72c-0.449,0.483-1.027,0.864-1.73,1.143
			c-0.705,0.278-1.541,0.417-2.508,0.417h-5.945v-0.295c0.262,0,0.43-0.045,0.504-0.135c0.072-0.09,0.109-0.274,0.109-0.553V12.46z
			 M221.809,20.913c0.77,0,1.422-0.106,1.953-0.319c0.533-0.213,0.967-0.504,1.303-0.873s0.582-0.794,0.738-1.277
			c0.154-0.483,0.232-1.003,0.232-1.561c0-0.557-0.078-1.077-0.232-1.56c-0.156-0.483-0.402-0.909-0.738-1.278
			s-0.77-0.659-1.303-0.873c-0.531-0.212-1.184-0.319-1.953-0.319h-3.514v8.06H221.809z"/>
		<path d="M256.676,22.755c0-0.18-0.041-0.303-0.123-0.369s-0.246-0.098-0.49-0.098h-9.854v-0.295c0.262,0,0.43-0.045,0.504-0.135
			c0.072-0.09,0.109-0.274,0.109-0.553V12.46c0-0.278-0.037-0.462-0.109-0.553c-0.074-0.09-0.242-0.135-0.504-0.135v-0.295h2.752
			v0.295c-0.262,0-0.43,0.045-0.504,0.135c-0.074,0.09-0.111,0.274-0.111,0.553v8.453h7.717c0.244,0,0.408-0.053,0.49-0.16
			s0.123-0.299,0.123-0.578h0.295v2.58H256.676z"/>
		<path d="M268.766,11.33c0.949,0,1.805,0.147,2.566,0.442s1.414,0.692,1.955,1.192c0.539,0.5,0.953,1.085,1.24,1.757
			s0.43,1.393,0.43,2.162c0,0.77-0.143,1.491-0.43,2.162c-0.287,0.672-0.701,1.258-1.24,1.757c-0.541,0.5-1.193,0.885-1.955,1.155
			c-0.762,0.27-1.617,0.405-2.566,0.405c-0.951,0-1.807-0.135-2.568-0.405c-0.762-0.271-1.412-0.655-1.953-1.155
			c-0.541-0.499-0.955-1.085-1.24-1.757c-0.287-0.671-0.432-1.392-0.432-2.162c0-0.77,0.145-1.49,0.432-2.162
			c0.285-0.672,0.699-1.257,1.24-1.757s1.191-0.897,1.953-1.192S267.814,11.33,268.766,11.33z M268.766,12.706
			c-0.705,0-1.34,0.107-1.904,0.319c-0.566,0.213-1.045,0.508-1.438,0.885c-0.395,0.377-0.697,0.819-0.91,1.327
			c-0.213,0.508-0.318,1.049-0.318,1.622c0,0.589,0.105,1.139,0.318,1.646c0.213,0.508,0.516,0.95,0.91,1.327
			c0.393,0.377,0.871,0.676,1.438,0.897c0.564,0.221,1.199,0.332,1.904,0.332c0.703,0,1.338-0.111,1.904-0.332
			c0.564-0.221,1.043-0.52,1.438-0.897c0.393-0.377,0.695-0.819,0.908-1.327c0.213-0.507,0.32-1.057,0.32-1.646
			c0-0.573-0.107-1.114-0.32-1.622c-0.213-0.507-0.516-0.95-0.908-1.327c-0.395-0.376-0.873-0.671-1.438-0.885
			C270.104,12.812,269.469,12.706,268.766,12.706z"/>
		<path d="M282.205,21.994c0.262,0,0.439-0.045,0.529-0.135c0.09-0.09,0.135-0.274,0.135-0.553V12.46
			c0-0.278-0.045-0.462-0.135-0.553c-0.09-0.09-0.268-0.135-0.529-0.135v-0.295h3.588v0.295c-0.262,0-0.438,0.021-0.527,0.062
			c-0.092,0.041-0.137,0.094-0.137,0.16c0,0.049,0.09,0.188,0.271,0.417l6.658,7.642V12.46c0-0.278-0.045-0.462-0.135-0.553
			c-0.09-0.09-0.268-0.135-0.529-0.135v-0.295h2.703v0.295c-0.262,0-0.438,0.045-0.527,0.135c-0.09,0.09-0.135,0.274-0.135,0.553
			v8.846c0,0.279,0.045,0.463,0.135,0.553c0.09,0.09,0.266,0.135,0.527,0.135v0.295h-3.293v-0.295c0.328,0,0.525-0.016,0.59-0.049
			c0.066-0.032,0.1-0.09,0.1-0.172c0-0.082-0.029-0.151-0.086-0.209c-0.059-0.057-0.127-0.135-0.209-0.233l-6.955-7.937v7.912
			c0,0.279,0.045,0.463,0.137,0.553c0.09,0.09,0.266,0.135,0.527,0.135v0.295h-2.703V21.994z"/>
		<path d="M311.814,14.696c0.031-0.131,0.049-0.221,0.049-0.27c0-0.082-0.094-0.217-0.283-0.406
			c-0.188-0.188-0.467-0.381-0.834-0.577c-0.369-0.197-0.824-0.369-1.365-0.516c-0.539-0.147-1.162-0.221-1.867-0.221
			c-0.672,0-1.285,0.107-1.842,0.319c-0.559,0.213-1.037,0.516-1.438,0.909c-0.402,0.394-0.713,0.856-0.934,1.389
			c-0.223,0.532-0.332,1.118-0.332,1.757c0,0.541,0.102,1.053,0.307,1.536c0.205,0.483,0.508,0.905,0.908,1.265
			c0.402,0.361,0.91,0.647,1.523,0.86c0.615,0.213,1.332,0.319,2.15,0.319c0.246,0,0.529-0.021,0.848-0.062
			c0.32-0.041,0.648-0.098,0.984-0.172c0.334-0.074,0.65-0.168,0.945-0.283c0.295-0.114,0.541-0.254,0.736-0.417v-1.475h-2.236
			c-0.244,0-0.408,0.045-0.49,0.135c-0.082,0.09-0.123,0.242-0.123,0.455h-0.295v-2.359h0.295c0,0.115,0.041,0.209,0.123,0.283
			s0.246,0.11,0.49,0.11h4.203v0.295c-0.131,0.033-0.221,0.078-0.271,0.135c-0.049,0.058-0.072,0.16-0.072,0.307v1.646
			c0,0.23,0.113,0.369,0.344,0.418v0.246c-0.377,0.377-0.803,0.7-1.277,0.971c-0.477,0.27-0.963,0.488-1.463,0.651
			c-0.5,0.164-1.004,0.275-1.512,0.332s-0.99,0.086-1.449,0.086c-0.9,0-1.736-0.11-2.506-0.332s-1.434-0.569-1.99-1.044
			s-0.996-1.061-1.314-1.757c-0.32-0.696-0.48-1.495-0.48-2.396c0-0.655,0.141-1.31,0.418-1.965c0.279-0.655,0.68-1.245,1.205-1.77
			c0.523-0.524,1.174-0.95,1.953-1.277c0.777-0.328,1.666-0.492,2.666-0.492c0.688,0,1.314,0.07,1.879,0.209
			c0.566,0.139,1.057,0.295,1.475,0.467s0.758,0.332,1.02,0.479s0.426,0.221,0.492,0.221c0.098,0,0.164-0.02,0.195-0.062
			c0.033-0.041,0.066-0.077,0.1-0.11l0.295,0.123l-0.934,2.162L311.814,14.696z"/>
	</g>
	<g>
		<path fill="#929497" d="M90.823,48.904h-1.586l-1.391-3.211h-4.355l-1.443,3.211h-1.534l4.407-9.75h1.56L90.823,48.904z
			 M85.675,40.896l-1.534,3.393h3.068L85.675,40.896z"/>
		<path fill="#929497" d="M105.89,39.154c1.56,0,3.055,0.793,3.055,2.781c0,2.119-1.417,2.783-2.236,2.848l2.015,4.121h-1.599
			l-1.95-4.068h-3.627v4.068h-1.404v-9.75H105.89z M101.547,40.559v2.873h4.342c1.053,0,1.651-0.547,1.651-1.496
			c0-1.104-0.845-1.377-1.651-1.377H101.547z"/>
		<path fill="#929497" d="M128.042,47.162c-0.923,1.002-2.08,1.951-4.875,1.951c-2.639,0-5.135-2.016-5.135-5.006
			c0-2.873,2.223-5.162,5.109-5.162c2.665,0,4.277,1.535,4.745,1.99l-1.053,0.896c-0.442-0.363-1.677-1.482-3.679-1.482
			c-1.82,0-3.718,1.326-3.718,3.758c0,1.742,1.404,3.602,4.069,3.602c2.08,0,3.172-1.053,3.601-1.561L128.042,47.162z"/>
		<path fill="#929497" d="M138.116,39.154h1.404v3.939h5.72v-3.939h1.404v9.75h-1.404v-4.406h-5.72v4.406h-1.404V39.154z"/>
		<path fill="#929497" d="M159.02,39.154v9.75h-1.404v-9.75H159.02z"/>
		<path fill="#929497" d="M177.051,39.154v1.404h-3.418v8.346h-1.404v-8.346h-3.42v-1.404H177.051z"/>
		<path fill="#929497" d="M194.705,39.154v1.404h-6.578v2.561h3.314v1.404h-3.314V47.5h6.824v1.404h-8.229v-9.75H194.705z"/>
		<path fill="#929497" d="M214.348,47.162c-0.924,1.002-2.08,1.951-4.875,1.951c-2.639,0-5.135-2.016-5.135-5.006
			c0-2.873,2.223-5.162,5.109-5.162c2.664,0,4.277,1.535,4.744,1.99l-1.053,0.896c-0.441-0.363-1.678-1.482-3.68-1.482
			c-1.82,0-3.717,1.326-3.717,3.758c0,1.742,1.402,3.602,4.068,3.602c2.08,0,3.172-1.053,3.602-1.561L214.348,47.162z"/>
		<path fill="#929497" d="M231.482,39.154v1.404h-3.42v8.346h-1.404v-8.346h-3.418v-1.404H231.482z"/>
		<path fill="#929497" d="M241.037,46.188c0.648,0.441,1.598,1.521,3.939,1.521c1.312,0,3.105-0.469,3.105-1.664
			c0-1.6-1.832-1.6-3.055-1.6h-1.455c-1.326,0-2.887-0.729-2.887-2.496c0-2.066,2.34-3.004,4.135-3.004
			c2.197,0,3.6,1.041,3.99,1.326l-0.793,1.131c-0.832-0.492-1.521-1.053-3.158-1.053c-1.223,0-2.77,0.455-2.77,1.6
			c0,0.754,0.545,1.117,1.664,1.117h1.287c2.287,0,4.445,0.572,4.445,2.99c0,2.041-2.17,3.057-4.602,3.057
			c-2.938,0-4.238-1.393-4.836-1.977L241.037,46.188z"/>
	</g>
</g>
</svg>
