<?xml version="1.0" encoding="utf-8"?>
<!-- Generator: Adobe Illustrator 16.0.0, SVG Export Plug-In . SVG Version: 6.00 Build 0)  -->
<!DOCTYPE svg PUBLIC "-//W3C//DTD SVG 1.1//EN" "http://www.w3.org/Graphics/SVG/1.1/DTD/svg11.dtd">
<svg version="1.1" id="Layer_1" xmlns="http://www.w3.org/2000/svg" xmlns:xlink="http://www.w3.org/1999/xlink" x="0px" y="0px"
	 width="72px" height="18px" viewBox="0 0 72 18" enable-background="new 0 0 72 18" xml:space="preserve">
<path fill="#FFFFFF" d="M38.765,6.699l0.471,0.617c0,0,0.969-0.764,1.291-0.382c0.324,0.382,1.557,4.993,1.968,5.842
	c0.359,0.746,1.351,1.732,2.437,1.028c1.087-0.704,4.698-3.788,5.345-7.429c0.646-3.64-4.346-2.877-4.875,0.294
	c1.321-0.793,2.027,0.322,1.351,1.585c-0.675,1.262-1.291,2.085-1.614,2.085s-0.57-0.845-0.939-2.321
	c-0.382-1.526-0.38-4.275-1.968-3.964C40.732,4.35,38.765,6.699,38.765,6.699z"/>
<path fill="#FFFFFF" d="M32.784,5.412c-0.426,0.189-0.884,0.316-1.363,0.374c0.49-0.294,0.866-0.759,1.043-1.313
	c-0.458,0.272-0.966,0.47-1.507,0.576C30.524,4.588,29.908,4.3,29.225,4.3c-1.311,0-2.373,1.062-2.373,2.373
	c0,0.186,0.021,0.367,0.062,0.541c-1.973-0.1-3.721-1.044-4.892-2.479C21.817,5.084,21.7,5.492,21.7,5.927
	c0,0.824,0.419,1.55,1.056,1.976c-0.389-0.012-0.755-0.119-1.075-0.297c0,0.011,0,0.02,0,0.03c0,1.149,0.818,2.108,1.903,2.326
	c-0.198,0.055-0.408,0.084-0.625,0.084c-0.152,0-0.302-0.016-0.446-0.043c0.302,0.943,1.179,1.629,2.217,1.648
	c-0.812,0.637-1.835,1.016-2.947,1.016c-0.191,0-0.381-0.011-0.566-0.033c1.051,0.674,2.298,1.066,3.638,1.066
	c4.366,0,6.753-3.616,6.753-6.752c0-0.103-0.002-0.205-0.007-0.308C32.063,6.307,32.466,5.889,32.784,5.412L32.784,5.412z"/>
<path fill="#FFFFFF" d="M9.524,14.784H7.357V9H5.911V7.007l1.446-0.001L7.354,5.832c0-1.626,0.441-2.616,2.356-2.616h1.595v1.994
	h-0.997c-0.746,0-0.782,0.279-0.782,0.799L9.524,7.006h1.792L11.106,9l-1.58,0L9.524,14.784z"/>
<path fill="#FFFFFF" d="M60.47,12.708h-2.023V5.624h2.023V12.708z M59.458,4.612c-0.559,0-1.012-0.453-1.012-1.012
	s0.453-1.012,1.012-1.012s1.012,0.453,1.012,1.012S60.017,4.612,59.458,4.612z M67.554,12.708H65.53V8.661
	c0-0.56-0.453-1.013-1.012-1.013c-0.56,0-1.013,0.453-1.013,1.013v4.047h-2.024V5.624h2.024v1.257
	c0.417-0.573,1.056-1.257,1.771-1.257c1.257,0,2.276,1.133,2.276,2.53V12.708L67.554,12.708z"/>
</svg>
